HIERARCHY
ROOT joint_Root
{
	OFFSET 0.0 0.0 0.0
	CHANNELS 6 Xposition Yposition Zposition Zrotation Xrotation Yrotation 
	JOINT Hips
	{
		OFFSET -17.1583 93.1646 452.98
		CHANNELS 6 Xposition Yposition Zposition Zrotation Xrotation Yrotation 
		JOINT Spine
		{
			OFFSET 15.7357 0.0 0.0
			CHANNELS 6 Xposition Yposition Zposition Zrotation Xrotation Yrotation 
			JOINT Chest
			{
				OFFSET 8.98455 -0.406207 0.0
				CHANNELS 6 Xposition Yposition Zposition Zrotation Xrotation Yrotation 
				JOINT Neck
				{
					OFFSET 16.3773 0.0 0.0
					CHANNELS 6 Xposition Yposition Zposition Zrotation Xrotation Yrotation 
					JOINT Head
					{
						OFFSET 6.45672 0.0 0.0
						CHANNELS 6 Xposition Yposition Zposition Zrotation Xrotation Yrotation 
						End Site
						{
							OFFSET 0.0 0.0 0.0
						}
					}
				}
				JOINT Shoulder_L
				{
					OFFSET 12.9942 -0.242716 4.98039
					CHANNELS 6 Xposition Yposition Zposition Zrotation Xrotation Yrotation 
					JOINT UpperArm_L
					{
						OFFSET 5.34809 0.0 0.0
						CHANNELS 6 Xposition Yposition Zposition Zrotation Xrotation Yrotation 
						JOINT LowerArm_L
						{
							OFFSET 24.3286 1.87007e-05 0.0
							CHANNELS 6 Xposition Yposition Zposition Zrotation Xrotation Yrotation 
							JOINT Hand_L
							{
								OFFSET 22.2916 0.0 0.0
								CHANNELS 6 Xposition Yposition Zposition Zrotation Xrotation Yrotation 
								End Site
								{
									OFFSET 0.0 0.0 0.0
								}
							}
						}
					}
				}
				JOINT Shoulder_R
				{
					OFFSET 12.9945 -0.242716 -4.98039
					CHANNELS 6 Xposition Yposition Zposition Zrotation Xrotation Yrotation 
					JOINT UpperArm_R
					{
						OFFSET -5.34813 0.0 0.0
						CHANNELS 6 Xposition Yposition Zposition Zrotation Xrotation Yrotation 
						JOINT LowerArm_R
						{
							OFFSET -24.3289 0.000322201 0.0
							CHANNELS 6 Xposition Yposition Zposition Zrotation Xrotation Yrotation 
							JOINT Hand_R
							{
								OFFSET -22.2915 -0.000108084 0.0
								CHANNELS 6 Xposition Yposition Zposition Zrotation Xrotation Yrotation 
								End Site
								{
									OFFSET 0.0 0.0 0.0
								}
							}
						}
					}
				}
			}
		}
		JOINT UpperLeg_L
		{
			OFFSET -2.19248 -6.46944 0.0
			CHANNELS 6 Xposition Yposition Zposition Zrotation Xrotation Yrotation 
			JOINT LowerLeg_L
			{
				OFFSET 39.0811 0.0 -1.23785e-05
				CHANNELS 6 Xposition Yposition Zposition Zrotation Xrotation Yrotation 
				JOINT Foot_L
				{
					OFFSET 40.9854 0.0 -1.26872e-05
					CHANNELS 6 Xposition Yposition Zposition Zrotation Xrotation Yrotation 
					JOINT Toes_L
					{
						OFFSET 11.7543 0.0 0.0
						CHANNELS 6 Xposition Yposition Zposition Zrotation Xrotation Yrotation 
						End Site
						{
							OFFSET 0.0 0.0 0.0
						}
					}
				}
			}
		}
		JOINT UpperLeg_R
		{
			OFFSET -2.19251 6.46944 0.0
			CHANNELS 6 Xposition Yposition Zposition Zrotation Xrotation Yrotation 
			JOINT LowerLeg_R
			{
				OFFSET -39.0811 -0.00228153 -0.0401928
				CHANNELS 6 Xposition Yposition Zposition Zrotation Xrotation Yrotation 
				JOINT Foot_R
				{
					OFFSET -40.9854 0.0 0.0
					CHANNELS 6 Xposition Yposition Zposition Zrotation Xrotation Yrotation 
					JOINT Toes_R
					{
						OFFSET -11.7543 0.0 0.0
						CHANNELS 6 Xposition Yposition Zposition Zrotation Xrotation Yrotation 
						End Site
						{
							OFFSET 0.0 0.0 0.0
						}
					}
				}
			}
		}
	}
}
MOTION
Frames:	5
Frame Time:	0.0333333
0.000000 0.000000 0.000000 0.000000 0.000000 -0.000000 -4.634030 91.982700 -0.158905 83.894400 -0.084682 2.843550 15.735700 0.000005 -0.000001 62.372000 87.447700 -58.949500 8.984550 -0.406207 -0.000000 -3.155450 -2.691950 6.773240 16.377300 -0.000001 -0.000001 11.525900 3.513630 5.939850 6.456720 -0.000001 -0.000000 5.792150 7.464370 16.316200 12.994200 -0.242716 4.980390 -91.777500 4.947310 -70.208700 5.348090 -0.000007 -0.000001 -76.228700 -3.389710 -5.692230 24.328600 0.000019 0.000005 43.670700 -42.833100 -125.457000 22.291600 -0.000001 0.000005 47.924700 5.045400 6.338170 12.994500 -0.242716 -4.980390 87.403400 6.618160 -68.521200 -5.348130 -0.000001 -0.000004 -64.287700 4.716040 -7.719540 -24.328900 0.000322 -0.000009 19.752500 -22.348000 -136.638000 -22.291500 -0.000108 -0.000004 55.887900 5.645390 -14.590900 -2.192480 -6.469440 -0.000000 -170.642000 0.287003 -4.361150 39.081100 -0.000007 -0.000012 0.384695 -0.738770 27.508000 40.985400 -0.000006 -0.000013 0.219120 8.800960 -76.657800 11.754300 -0.000000 0.000003 0.000691 0.155047 -10.288700 -2.192510 6.469440 -0.000001 -169.619000 8.142960 -177.389000 -39.081100 -0.002282 -0.040193 0.065190 -0.235085 14.742400 -40.985400 0.000008 0.000006 3.712370 3.647400 -70.365100 -11.754300 -0.000006 -0.000006 -0.010529 0.275219 -5.390860
0.000000 0.000000 0.000000 0.000000 0.000000 -0.000000 -4.607130 91.976300 -0.143001 83.891100 -0.008420 2.818310 15.735700 0.000005 -0.000001 62.351700 87.445500 -58.956200 8.984550 -0.406207 -0.000000 -3.153160 -2.692950 6.719280 16.377300 -0.000001 -0.000001 11.474600 3.460470 5.906540 6.456720 -0.000001 -0.000000 5.727290 7.373500 16.286200 12.994200 -0.242716 4.980390 -91.773800 4.944890 -70.238100 5.348090 -0.000007 -0.000001 -76.246500 -3.452830 -5.668590 24.328600 0.000019 0.000005 43.831500 -42.862300 -125.320000 22.291600 -0.000001 0.000005 47.884900 5.043660 6.376340 12.994500 -0.242716 -4.980390 87.407800 6.603420 -68.511200 -5.348130 -0.000001 -0.000004 -64.304000 4.741810 -7.728760 -24.328900 0.000322 -0.000009 19.867900 -22.429900 -136.556000 -22.291500 -0.000108 -0.000004 55.963000 5.644620 -14.522000 -2.192480 -6.469440 -0.000000 -170.653000 0.308905 -4.423620 39.081100 -0.000007 -0.000012 0.389877 -0.747332 27.551700 40.985400 -0.000006 -0.000013 0.249570 8.846090 -76.639600 11.754300 -0.000000 0.000003 0.000654 0.155770 -10.259400 -2.192510 6.469440 -0.000001 -169.618000 8.135460 -177.447000 -39.081100 -0.002282 -0.040193 0.065517 -0.235357 14.800600 -40.985400 0.000008 0.000006 3.642600 3.584470 -70.341400 -11.754300 -0.000006 -0.000006 -0.010252 0.273176 -5.474460
0.000000 0.000000 0.000000 0.000000 0.000000 -0.000000 -4.573110 91.986000 -0.116401 83.928800 0.041960 2.798350 15.735700 0.000005 -0.000001 62.216500 87.449400 -58.858200 8.984550 -0.406207 -0.000000 -3.166590 -2.696850 6.644420 16.377300 -0.000001 -0.000001 11.437400 3.422350 5.881950 6.456720 -0.000001 -0.000000 5.686860 7.336150 16.285800 12.994200 -0.242716 4.980390 -91.775600 4.942260 -70.209600 5.348090 -0.000007 -0.000001 -76.282300 -3.400540 -5.643650 24.328600 0.000019 0.000005 43.956800 -42.886900 -125.214000 22.291600 -0.000001 0.000005 47.957400 5.031590 6.640040 12.994500 -0.242716 -4.980390 87.422900 6.573560 -68.536900 -5.348130 -0.000001 -0.000004 -64.359400 4.742170 -7.694770 -24.328900 0.000322 -0.000009 19.858100 -22.421400 -136.561000 -22.291500 -0.000108 -0.000004 56.007900 5.644600 -14.521100 -2.192480 -6.469440 -0.000000 -170.718000 0.358320 -4.385740 39.081100 -0.000007 -0.000012 0.384188 -0.739246 27.461900 40.985400 -0.000006 -0.000013 0.273151 8.835230 -76.624000 11.754300 -0.000000 0.000003 0.000780 0.153269 -10.360900 -2.192510 6.469440 -0.000001 -169.685000 8.146860 -177.416000 -39.081100 -0.002282 -0.040193 0.064242 -0.231455 14.744000 -40.985400 0.000008 0.000006 3.598140 3.536310 -70.367100 -11.754300 -0.000006 -0.000006 -0.010373 0.274074 -5.437730
0.000000 0.000000 0.000000 0.000000 0.000000 -0.000000 -4.540460 91.983400 -0.091693 83.929300 0.112765 2.776600 15.735700 0.000005 -0.000001 62.181500 87.454300 -58.848900 8.984550 -0.406207 -0.000000 -3.177630 -2.692870 6.592780 16.377300 -0.000001 -0.000001 11.482700 3.394810 5.826780 6.456720 -0.000001 -0.000000 5.601800 7.300140 16.353900 12.994200 -0.242716 4.980390 -91.779900 4.950980 -70.198000 5.348090 -0.000007 -0.000001 -76.280500 -3.432190 -5.590680 24.328600 0.000019 0.000005 43.939700 -42.889300 -125.232000 22.291600 -0.000001 0.000005 47.884500 5.034520 6.576050 12.994500 -0.242716 -4.980390 87.429400 6.540030 -68.486600 -5.348130 -0.000001 -0.000004 -64.386900 4.774010 -7.741760 -24.328900 0.000322 -0.000009 19.814900 -22.346200 -136.538000 -22.291500 -0.000108 -0.000004 56.046500 5.643940 -14.462600 -2.192480 -6.469440 -0.000000 -170.750000 0.380481 -4.427090 39.081100 -0.000007 -0.000012 0.390413 -0.750277 27.491600 40.985400 -0.000006 -0.000013 0.304335 8.839370 -76.655900 11.754300 -0.000000 0.000003 0.000675 0.155360 -10.276000 -2.192510 6.469440 -0.000001 -169.696000 8.172690 -177.442000 -39.081100 -0.002282 -0.040193 0.064575 -0.232453 14.760300 -40.985400 0.000008 0.000006 3.597930 3.472370 -70.400100 -11.754300 -0.000006 -0.000006 -0.010486 0.274905 -5.403730
0.000000 0.000000 0.000000 0.000000 0.000000 -0.000000 -4.504060 91.989000 -0.052588 83.938500 0.138457 2.762180 15.735700 0.000005 -0.000001 62.190700 87.465100 -58.885100 8.984550 -0.406207 -0.000000 -3.197440 -2.680100 6.538840 16.377300 -0.000001 -0.000001 11.485700 3.416510 5.786150 6.456720 -0.000001 -0.000000 5.599370 7.283220 16.408800 12.994200 -0.242716 4.980390 -91.789700 4.978120 -70.196800 5.348090 -0.000007 -0.000001 -76.283600 -3.592010 -5.609750 24.328600 0.000019 0.000005 43.863900 -42.834500 -125.275000 22.291600 -0.000001 0.000005 48.089800 5.035580 6.553050 12.994500 -0.242716 -4.980390 87.446800 6.510200 -68.530900 -5.348130 -0.000001 -0.000004 -64.404000 4.748140 -7.695120 -24.328900 0.000322 -0.000009 19.863800 -22.371700 -136.492000 -22.291500 -0.000108 -0.000004 56.011800 5.643850 -14.455200 -2.192480 -6.469440 -0.000000 -170.783000 0.391435 -4.381580 39.081100 -0.000007 -0.000012 0.388581 -0.748687 27.431100 40.985400 -0.000006 -0.000013 0.330768 8.842140 -76.664400 11.754300 -0.000000 0.000003 0.000544 0.157894 -10.173200 -2.192510 6.469440 -0.000001 -169.737000 8.084390 -177.429000 -39.081100 -0.002282 -0.040193 0.062395 -0.224276 14.754200 -40.985400 0.000008 0.000006 3.403890 3.447670 -70.353400 -11.754300 -0.000006 -0.000006 -0.010233 0.273037 -5.480140
